<svg width="15" height="15" viewBox="0 0 15 15" fill="none" xmlns="http://www.w3.org/2000/svg">
<path id="Vector" d="M10.4172 9.55952H9.75885L9.52552 9.33452C10.5255 8.16785 11.0422 6.57619 10.7589 4.88452C10.3672 2.56786 8.43385 0.717855 6.10052 0.434522C2.57552 0.00118867 -0.391145 2.96785 0.042188 6.49286C0.325521 8.82619 2.17552 10.7595 4.49219 11.1512C6.18385 11.4345 7.77552 10.9179 8.94219 9.91786L9.16719 10.1512V10.8095L12.7089 14.3512C13.0505 14.6929 13.6089 14.6929 13.9505 14.3512C14.2922 14.0095 14.2922 13.4512 13.9505 13.1095L10.4172 9.55952ZM5.41719 9.55952C3.34219 9.55952 1.66719 7.88452 1.66719 5.80952C1.66719 3.73452 3.34219 2.05952 5.41719 2.05952C7.49219 2.05952 9.16719 3.73452 9.16719 5.80952C9.16719 7.88452 7.49219 9.55952 5.41719 9.55952Z" fill="white" fill-opacity="0.5"/>
</svg>
